<?xml version="1.0" encoding="UTF-8" standalone="no"?>
<svg
   xmlns:dc="http://purl.org/dc/elements/1.1/"
   xmlns:cc="http://creativecommons.org/ns#"
   xmlns:rdf="http://www.w3.org/1999/02/22-rdf-syntax-ns#"
   xmlns:svg="http://www.w3.org/2000/svg"
   xmlns="http://www.w3.org/2000/svg"
   xmlns:xlink="http://www.w3.org/1999/xlink"
   id="svg1306"
   height="16"
   width="16"
   version="1.1">
  <path
     id="path1182"
     d="M 1.540447,14.54915 V 13.714085 L 1.36721,13.690335 c -0.09528,-0.01306 -0.38666,-0.02374 -0.647508,-0.02374 h -0.47427 l -0.02943,-0.961494 c -0.01619,-0.528821 -0.02844,-1.016308 -0.02722,-1.083304 0.0014,-0.07527 0.128771,-0.374885 0.333436,-0.78413 0.182176,-0.364276 0.41811,-0.851352 0.524297,-1.082391 L 1.239583,9.335206 H 1.551909 1.864236 L 1.887996,5.31971 c 0.02658,-4.491935 0.0036,-4.153102 0.299411,-4.406347 0.08353,-0.0715 0.211571,-0.14549 0.284539,-0.164426 0.194484,-0.05047 6.005116,-0.08409 8.630064,-0.04993 l 2.261751,0.02943 0.156405,0.103505 c 0.08602,0.05693 0.204109,0.180149 0.262414,0.273825 l 0.10601,0.17032 0.01991,2.332504 c 0.01095,1.282876 0.02842,2.341017 0.03883,2.351423 0.01041,0.01041 0.180939,0.05202 0.378962,0.09247 0.44136,0.09016 0.709186,0.205062 0.918684,0.394113 0.2021,0.182376 0.267654,0.339553 0.261162,0.62618 -0.0028,0.125077 -0.0038,0.252618 -0.0021,0.283423 0.0017,0.03081 0.0022,1.372546 0.0011,2.981645 -0.0021,3.204328 0.01163,3.011248 -0.230048,3.242583 -0.227419,0.217691 -0.582553,0.350512 -1.286789,0.481262 -0.05243,0.0097 -0.113209,0.08382 -0.178858,0.218001 -0.222809,0.455411 -0.748759,0.708348 -1.571347,0.755685 -0.821395,0.04727 -1.557768,-0.204443 -1.838235,-0.628355 l -0.103403,-0.156288 v -0.755697 c 0,-0.415633 -0.01061,-0.766316 -0.02359,-0.779294 -0.01297,-0.01298 -0.133666,-0.01858 -0.268206,-0.01246 l -0.244619,0.01114 0.07164,0.211782 c 0.08995,0.265909 0.0877,0.225206 0.07954,1.440494 l -0.0068,1.017503 H 5.722438 1.540449 Z"
     style="fill:#000000;fill-opacity:1;stroke:none;stroke-width:0;stroke-miterlimit:4;stroke-dasharray:none;stroke-opacity:1" />
</svg>
